<svg xmlns="http://www.w3.org/2000/svg" width="184.9237518310547" height="179.7709197998047" viewBox="8.913360595703125 3.296764373779297 184.9237518310547 179.7709197998047"><title>Neo4j Graph Visualization</title><desc>Created using Neo4j (http://www.neo4j.com/)</desc><g class="layer relationships"><g class="relationship" transform="translate(140.35403093913976 154.06769391882813) rotate(288.33553913409435)"><path class="outline" fill="#FB95AF" stroke="none" d="M 25 0.5 L 35.41375709378529 0.5 L 35.41375709378529 -0.5 L 25 -0.5 Z M 35.41375709378529 0.5 L 45.827514187570586 0.5 L 45.827514187570586 3.5 L 52.827514187570586 0 L 45.827514187570586 -3.5 L 45.827514187570586 -0.5 L 35.41375709378529 -0.5 Z"/><text text-anchor="middle" pointer-events="none" font-size="8px" fill="#000000" x="35.41375709378529" y="3" font-family="sans-serif"/></g><g class="relationship" transform="translate(140.35403093913976 154.06769391882813) rotate(218.12077633833752)"><path class="outline" fill="#FB95AF" stroke="none" d="M 25 0.5 L 50.60690756923779 0.5 L 50.60690756923779 -0.5 L 25 -0.5 Z M 72.60690756923779 0.5 L 98.21381513847558 0.5 L 98.21381513847558 3.5 L 105.21381513847558 0 L 98.21381513847558 -3.5 L 98.21381513847558 -0.5 L 72.60690756923779 -0.5 Z"/><text text-anchor="middle" pointer-events="none" font-size="8px" fill="#000000" x="61.60690756923779" y="3" transform="rotate(180 61.60690756923779 0)" font-family="sans-serif">朋友</text></g><g class="relationship" transform="translate(140.35403093913976 154.06769391882813) rotate(253.40046008322741)"><path class="outline" fill="#FB95AF" stroke="none" d="M 25 0.5 L 49.03322077460254 0.5 L 49.03322077460254 -0.5 L 25 -0.5 Z M 71.03322077460254 0.5 L 95.06644154920508 0.5 L 95.06644154920508 3.5 L 102.06644154920508 0 L 95.06644154920508 -3.5 L 95.06644154920508 -0.5 L 71.03322077460254 -0.5 Z"/><text text-anchor="middle" pointer-events="none" font-size="8px" fill="#000000" x="60.03322077460254" y="3" transform="rotate(180 60.03322077460254 0)" font-family="sans-serif">朋友</text></g><g class="relationship" transform="translate(140.35403093913976 154.06769391882813) rotate(181.91789240973497)"><path class="outline" fill="#FB95AF" stroke="none" d="M 25 0.5 L 25.80388392961104 0.5 L 25.80388392961104 -0.5 L 25 -0.5 Z M 47.80388392961104 0.5 L 48.60776785922208 0.5 L 48.60776785922208 3.5 L 55.60776785922208 0 L 48.60776785922208 -3.5 L 48.60776785922208 -0.5 L 47.80388392961104 -0.5 Z"/><text text-anchor="middle" pointer-events="none" font-size="8px" fill="#000000" x="36.80388392961104" y="3" transform="rotate(180 36.80388392961104 0)" font-family="sans-serif">朋友</text></g><g class="relationship" transform="translate(164.83711155317684 80.1914411154877) rotate(505.8785946289793)"><path class="outline" fill="#FB95AF" stroke="none" d="M 25 0.5 L 48.94481992925118 0.5 L 48.94481992925118 -0.5 L 25 -0.5 Z M 70.94481992925118 0.5 L 94.88963985850236 0.5 L 94.88963985850236 3.5 L 101.88963985850236 0 L 94.88963985850236 -3.5 L 94.88963985850236 -0.5 L 70.94481992925118 -0.5 Z"/><text text-anchor="middle" pointer-events="none" font-size="8px" fill="#000000" x="59.94481992925118" y="3" transform="rotate(180 59.94481992925118 0)" font-family="sans-serif">朋友</text></g><g class="relationship" transform="translate(164.83711155317684 80.1914411154877) rotate(218.23652497591513)"><path class="outline" fill="#FB95AF" stroke="none" d="M 25 0.5 L 35.1928123706215 0.5 L 35.1928123706215 -0.5 L 25 -0.5 Z M 35.1928123706215 0.5 L 45.38562474124301 0.5 L 45.38562474124301 3.5 L 52.38562474124301 0 L 45.38562474124301 -3.5 L 45.38562474124301 -0.5 L 35.1928123706215 -0.5 Z"/><text text-anchor="middle" pointer-events="none" font-size="8px" fill="#000000" x="35.1928123706215" y="3" transform="rotate(180 35.1928123706215 0)" font-family="sans-serif"/></g><g class="relationship" transform="translate(164.83711155317684 80.1914411154877) rotate(182.93503598432994)"><path class="outline" fill="#FB95AF" stroke="none" d="M 25 0.5 L 49.04523173987362 0.5 L 49.04523173987362 -0.5 L 25 -0.5 Z M 71.04523173987363 0.5 L 95.09046347974724 0.5 L 95.09046347974724 3.5 L 102.09046347974724 0 L 95.09046347974724 -3.5 L 95.09046347974724 -0.5 L 71.04523173987363 -0.5 Z"/><text text-anchor="middle" pointer-events="none" font-size="8px" fill="#000000" x="60.04523173987362" y="3" transform="rotate(180 60.04523173987362 0)" font-family="sans-serif">朋友</text></g><g class="relationship" transform="translate(104.05360451639261 32.296763030112864) rotate(507.96377196465374)"><path class="outline" fill="#FB95AF" stroke="none" d="M 25 0.5 L 35.51099449766436 0.5 L 35.51099449766436 -0.5 L 25 -0.5 Z M 35.51099449766436 0.5 L 46.021988995328726 0.5 L 46.021988995328726 3.5 L 53.021988995328726 0 L 46.021988995328726 -3.5 L 46.021988995328726 -0.5 L 35.51099449766436 -0.5 Z"/><text text-anchor="middle" pointer-events="none" font-size="8px" fill="#000000" x="35.51099449766436" y="3" transform="rotate(180 35.51099449766436 0)" font-family="sans-serif"/></g><g class="relationship" transform="translate(104.05360451639261 32.296763030112864) rotate(470.39123112923915)"><path class="outline" fill="#FB95AF" stroke="none" d="M 25 0.5 L 49.01686761775498 0.5 L 49.01686761775498 -0.5 L 25 -0.5 Z M 71.01686761775498 0.5 L 95.03373523550997 0.5 L 95.03373523550997 3.5 L 102.03373523550997 0 L 95.03373523550997 -3.5 L 95.03373523550997 -0.5 L 71.01686761775498 -0.5 Z"/><text text-anchor="middle" pointer-events="none" font-size="8px" fill="#000000" x="60.01686761775498" y="3" transform="rotate(180 60.01686761775498 0)" font-family="sans-serif">朋友</text></g><g class="relationship" transform="translate(37.91336112141386 73.6839466796458) rotate(434.2716371101424)"><path class="outline" fill="#FB95AF" stroke="none" d="M 25 0.5 L 25.85395802833738 0.5 L 25.85395802833738 -0.5 L 25 -0.5 Z M 47.85395802833738 0.5 L 48.70791605667476 0.5 L 48.70791605667476 3.5 L 55.70791605667476 0 L 48.70791605667476 -3.5 L 48.70791605667476 -0.5 L 47.85395802833738 -0.5 Z"/><text text-anchor="middle" pointer-events="none" font-size="8px" fill="#000000" x="36.85395802833738" y="3" font-family="sans-serif">朋友</text></g></g><g class="layer nodes"><g class="node" transform="translate(140.35403093913976,154.06769391882813)"><defs><pattern id="null" patternUnits="userSpaceOnUse" x="-32.5" y="-32.5" width="65" height="65"><image x="0" y="0" width="65" height="65"/></pattern></defs><circle class="outline" cx="0" cy="0" r="25" fill="#FFD86E" stroke="#EDBA39" stroke-width="2px"/><text text-anchor="middle" pointer-events="none" font-family="sans-serif" dy="1.5625" font-size="25" fill="#604A0E"/><text class="caption" text-anchor="middle" pointer-events="none" y="5" font-size="13" fill="#604A0E" font-family="sans-serif"> 马云</text></g><g class="node" transform="translate(164.83711155317684,80.1914411154877)"><defs><pattern id="null" patternUnits="userSpaceOnUse" x="-32.5" y="-32.5" width="65" height="65"><image x="0" y="0" width="65" height="65"/></pattern></defs><circle class="outline" cx="0" cy="0" r="25" fill="#FFD86E" stroke="#EDBA39" stroke-width="2px"/><text text-anchor="middle" pointer-events="none" font-family="sans-serif" dy="1.5625" font-size="25" fill="#604A0E"/><text class="caption" text-anchor="middle" pointer-events="none" y="5" font-size="10" fill="#604A0E" font-family="sans-serif"> 王健林</text></g><g class="node" transform="translate(104.05360451639261,32.296763030112864)"><defs><pattern id="null" patternUnits="userSpaceOnUse" x="-32.5" y="-32.5" width="65" height="65"><image x="0" y="0" width="65" height="65"/></pattern></defs><circle class="outline" cx="0" cy="0" r="25" fill="#FFD86E" stroke="#EDBA39" stroke-width="2px"/><text text-anchor="middle" pointer-events="none" font-family="sans-serif" dy="1.5625" font-size="25" fill="#604A0E"/><text class="caption" text-anchor="middle" pointer-events="none" y="5" font-size="10" fill="#604A0E" font-family="sans-serif"> 马化腾</text></g><g class="node" transform="translate(37.91336112141386,73.6839466796458)"><defs><pattern id="null" patternUnits="userSpaceOnUse" x="-32.5" y="-32.5" width="65" height="65"><image x="0" y="0" width="65" height="65"/></pattern></defs><circle class="outline" cx="0" cy="0" r="25" fill="#FFD86E" stroke="#EDBA39" stroke-width="2px"/><text text-anchor="middle" pointer-events="none" font-family="sans-serif" dy="1.5625" font-size="25" fill="#604A0E"/><text class="caption" text-anchor="middle" pointer-events="none" y="5" font-size="13" fill="#604A0E" font-family="sans-serif"> 雷军</text></g><g class="node" transform="translate(59.79141846638455,151.3699706544988)"><defs><pattern id="null" patternUnits="userSpaceOnUse" x="-32.5" y="-32.5" width="65" height="65"><image x="0" y="0" width="65" height="65"/></pattern></defs><circle class="outline" cx="0" cy="0" r="25" fill="#FFD86E" stroke="#EDBA39" stroke-width="2px"/><text text-anchor="middle" pointer-events="none" font-family="sans-serif" dy="1.5625" font-size="25" fill="#604A0E"/><text class="caption" text-anchor="middle" pointer-events="none" y="5" font-size="10" fill="#604A0E" font-family="sans-serif"> 刘强东</text></g></g></svg>