<svg id="kity_svg_6" xmlns="http://www.w3.org/2000/svg" xmlns:xlink="http://www.w3.org/1999/xlink" version="1.1" width="943" height="593" style="background: rgb(251, 251, 251); visibility: visible;" viewBox="0 0 943 593"><defs id="kity_defs_7"><linearGradient id="kity_linearGradient_17" x1="0" y1="0" x2="0" y2="1"><stop id="kity_stop_18" offset="0" stop-color="rgb(255, 255, 255)"></stop><stop id="kity_stop_19" offset="1" stop-color="rgb(204, 204, 204)"></stop></linearGradient><marker id="kity_marker_4" orient="auto" refX="6" refY="0" viewBox="-7 -7 14 14" markerWidth="7" markerHeight="7" markerUnits="userSpaceOnUse"><path id="kity_path_5" fill="rgb(191, 147, 115)" stroke="none" d="M6,0A6,6,0,1,1,-6,0A6,6,0,1,1,6,0"></path></marker><marker id="kity_marker_2" orient="auto" refX="6" refY="0" viewBox="-7 -7 14 14" markerWidth="7" markerHeight="7" markerUnits="userSpaceOnUse"><path id="kity_path_3" fill="rgb(191, 147, 115)" stroke="none" d="M6,0A6,6,0,1,1,-6,0A6,6,0,1,1,6,0"></path></marker></defs><g id="kity_g_8"><g id="minder1" text-rendering="optimize-speed"><g id="minder_connect_group1"><path id="kity_path_31" fill="none" stroke="rgb(191, 147, 115)" stroke-width="1" d="M409.5,309.5A178,0,0,0,1,587.5,309.5"></path><path id="kity_path_39" fill="none" stroke="rgb(191, 147, 115)" stroke-width="1" d="M409.5,309.5A178,0,0,0,1,231.5,309.5"></path><path id="kity_path_246" fill="none" stroke="rgb(191, 147, 115)" stroke-width="1" d="M152.5,309.5C137.5,309.5,137.5,181.5,122.5,181.5L20.5,181.5"></path><path id="kity_path_247" fill="none" stroke="rgb(191, 147, 115)" stroke-width="1" d="M152.5,309.5C137.5,309.5,137.5,239.5,122.5,239.5L20.5,239.5"></path><path id="kity_path_248" fill="none" stroke="rgb(191, 147, 115)" stroke-width="1" d="M152.5,309.5C137.5,309.5,137.5,297.5,122.5,297.5L20.5,297.5"></path><path id="kity_path_249" fill="none" stroke="rgb(191, 147, 115)" stroke-width="1" d="M152.5,309.5C137.5,309.5,137.5,355.5,122.5,355.5L20.5,355.5"></path><path id="kity_path_250" fill="none" stroke="rgb(191, 147, 115)" stroke-width="1" d="M152.5,309.5C137.5,309.5,137.5,413.5,122.5,413.5L20.5,413.5"></path><path id="kity_path_251" fill="none" stroke="rgb(191, 147, 115)" stroke-width="1" d="M152.5,309.5C137.5,309.5,137.5,471.5,122.5,471.5L20.5,471.5"></path><path id="kity_path_252" fill="none" stroke="rgb(191, 147, 115)" stroke-width="1" d="M761.5,80.5C776.5,80.5,776.5,51.5,791.5,51.5L897.5,51.5"></path><path id="kity_path_253" fill="none" stroke="rgb(191, 147, 115)" stroke-width="1" d="M761.5,80.5C776.5,80.5,776.5,109.5,791.5,109.5L847.5,109.5"></path><path id="kity_path_254" fill="none" stroke="rgb(191, 147, 115)" stroke-width="1" d="M665.5,309.5C680.5,309.5,680.5,80.5,695.5,80.5L761.5,80.5"></path><path id="kity_path_255" fill="none" stroke="rgb(191, 147, 115)" stroke-width="1" d="M761.5,225.5C776.5,225.5,776.5,167.5,791.5,167.5L862.5,167.5"></path><path id="kity_path_256" fill="none" stroke="rgb(191, 147, 115)" stroke-width="1" d="M761.5,225.5C776.5,225.5,776.5,225.5,791.5,225.5L893.5,225.5"></path><path id="kity_path_257" fill="none" stroke="rgb(191, 147, 115)" stroke-width="1" d="M761.5,225.5C776.5,225.5,776.5,283.5,791.5,283.5L875.5,283.5"></path><path id="kity_path_258" fill="none" stroke="rgb(191, 147, 115)" stroke-width="1" d="M665.5,309.5C680.5,309.5,680.5,225.5,695.5,225.5L761.5,225.5"></path><path id="kity_path_259" fill="none" stroke="rgb(191, 147, 115)" stroke-width="1" d="M761.5,428.5C776.5,428.5,776.5,341.5,791.5,341.5L893.5,341.5"></path><path id="kity_path_260" fill="none" stroke="rgb(191, 147, 115)" stroke-width="1" d="M761.5,428.5C776.5,428.5,776.5,399.5,791.5,399.5L893.5,399.5"></path><path id="kity_path_261" fill="none" stroke="rgb(191, 147, 115)" stroke-width="1" d="M761.5,428.5C776.5,428.5,776.5,457.5,791.5,457.5L893.5,457.5"></path><path id="kity_path_262" fill="none" stroke="rgb(191, 147, 115)" stroke-width="1" d="M761.5,428.5C776.5,428.5,776.5,515.5,791.5,515.5L923.5,515.5"></path><path id="kity_path_263" fill="none" stroke="rgb(191, 147, 115)" stroke-width="1" d="M665.5,309.5C680.5,309.5,680.5,428.5,695.5,428.5L761.5,428.5"></path><path id="kity_path_264" fill="none" stroke="rgb(191, 147, 115)" stroke-width="1" d="M797.5,573.5C812.5,573.5,812.5,573.5,827.5,573.5L916.5,573.5"></path><path id="kity_path_265" fill="none" stroke="rgb(191, 147, 115)" stroke-width="1" d="M665.5,309.5C680.5,309.5,680.5,573.5,695.5,573.5L797.5,573.5"></path></g><g id="minder_node1"><path id="kity_path_288" fill="rgba(0, 0, 0, .25)" stroke="none" d="M427.5,238h0a77,77,0,0,1,77,77v0a77,77,0,0,1,-77,77h0a77,77,0,0,1,-77,-77v0a77,77,0,0,1,77,-77z" display="none"></path><path id="node_outline1" fill="rgb(191, 147, 115)" stroke="rgb(191, 147, 115)" d="M354.5,288.5h110a5,5,0,0,1,5,5v32a5,5,0,0,1,-5,5h-110a5,5,0,0,1,-5,-5v-32a5,5,0,0,1,5,-5z" stroke-width="3"></path><g id="node_text1" fill="white"><text id="kity_text_22" text-rendering="inherit" font-size="18" dy=".8em" y="297.7999999523163" x="373.5">数据挖掘</text></g></g><g id="kity_g_12" display="none"><path id="kity_path_13" fill="none" stroke="none" d="M373.5,309.5h0v0h0z"></path></g><g id="kity_g_14" display="none"><path id="kity_path_15" fill="none" stroke="none" d="M373.5,309.5h0v0h0z"></path><path id="kity_path_16" fill="none" stroke="none"></path></g><g id="minder_node2" opacity="1"><path id="kity_path_280" fill="rgba(0, 0, 0, .25)" stroke="none" d="M628.5,281h0a33,33,0,0,1,33,33v0a33,33,0,0,1,-33,33h0a33,33,0,0,1,-33,-33v0a33,33,0,0,1,33,-33z" display="none"></path><g id="node_expander1" style="cursor: pointer;"><path id="kity_path_36" fill="white" stroke="gray" d="M588.5,309.5A6,6,0,1,1,576.5,309.5A6,6,0,1,1,588.5,309.5"></path><path id="kity_path_37" fill="none" stroke="gray" d="M578,309.5L587,309.5"></path></g><path id="node_outline2" fill="rgb(246, 242, 238)" stroke="rgb(191, 147, 115)" d="M592.5,294.5h70a3,3,0,0,1,3,3v24a3,3,0,0,1,-3,3h-70a3,3,0,0,1,-3,-3v-24a3,3,0,0,1,3,-3z" stroke-width="1"></path><g id="node_text2" fill="black"><text id="kity_text_33" text-rendering="inherit" font-size="18" dy=".8em" y="297.7999999523163" x="609.5">算法</text></g></g><g id="minder_node3" opacity="1"><path id="kity_path_287" fill="rgba(0, 0, 0, .25)" stroke="none" d="M192,280h0a34,34,0,0,1,34,34v0a34,34,0,0,1,-34,34h0a34,34,0,0,1,-34,-34v0a34,34,0,0,1,34,-34z" display="none"></path><g id="node_expander2" style="cursor: pointer;"><path id="kity_path_44" fill="white" stroke="gray" d="M242.5,309.5A6,6,0,1,1,230.5,309.5A6,6,0,1,1,242.5,309.5"></path><path id="kity_path_45" fill="none" stroke="gray" d="M232,309.5L241,309.5"></path></g><path id="node_outline3" fill="rgb(246, 242, 238)" stroke="rgb(191, 147, 115)" d="M155.5,294.5h71a3,3,0,0,1,3,3v24a3,3,0,0,1,-3,3h-71a3,3,0,0,1,-3,-3v-24a3,3,0,0,1,3,-3z" stroke-width="1"></path><g id="node_text3" fill="black"><text id="kity_text_41" text-rendering="inherit" font-size="18" dy=".8em" y="297.7999999523163" x="172.5">应用</text></g></g><g id="minder_node20" opacity="1"><path id="kity_path_281" fill="rgba(0, 0, 0, .25)" stroke="none" d="M61,136h0a34,34,0,0,1,34,34v0a34,34,0,0,1,-34,34h0a34,34,0,0,1,-34,-34v0a34,34,0,0,1,34,-34z" display="none"></path><g id="node_expander19" style="cursor: pointer;" display="none"><path id="kity_path_180" fill="white" stroke="gray" d="M124.5,164.5A6,6,0,1,1,112.5,164.5A6,6,0,1,1,124.5,164.5"></path><path id="kity_path_181" fill="none" stroke="gray" d="M114,164.5L123,164.5"></path></g><path id="node_outline20" fill="none" stroke="none" d="M25.5,150.5h82a5,5,0,0,1,5,5v18a5,5,0,0,1,-5,5h-82a5,5,0,0,1,-5,-5v-18a5,5,0,0,1,5,-5z" stroke-width="3"></path><g id="node_text20" fill="black"><text id="kity_text_177" text-rendering="inherit" font-size="18" dy=".8em" y="152.79999995231628" x="30.5">信用评分</text></g></g><g id="minder_node21"><path id="kity_path_282" fill="rgba(0, 0, 0, .25)" stroke="none" d="M60.5,195h0a33,33,0,0,1,33,33v0a33,33,0,0,1,-33,33h0a33,33,0,0,1,-33,-33v0a33,33,0,0,1,33,-33z" display="none"></path><g id="node_expander20" style="cursor: pointer;" display="none"><path id="kity_path_188" fill="white" stroke="gray" d="M124.5,222.5A6,6,0,1,1,112.5,222.5A6,6,0,1,1,124.5,222.5"></path><path id="kity_path_189" fill="none" stroke="gray"></path></g><path id="node_outline21" fill="none" stroke="none" d="M25.5,208.5h82a5,5,0,0,1,5,5v18a5,5,0,0,1,-5,5h-82a5,5,0,0,1,-5,-5v-18a5,5,0,0,1,5,-5z" stroke-width="3"></path><g id="node_text21" fill="black"><text id="kity_text_185" text-rendering="inherit" font-size="18" dy=".8em" y="210.79999995231628" x="30.5">量化选股</text></g></g><g id="minder_node22"><path id="kity_path_283" fill="rgba(0, 0, 0, .25)" stroke="none" d="M60.5,253h0a33,33,0,0,1,33,33v0a33,33,0,0,1,-33,33h0a33,33,0,0,1,-33,-33v0a33,33,0,0,1,33,-33z" display="none"></path><g id="node_expander21" style="cursor: pointer;" display="none"><path id="kity_path_196" fill="white" stroke="gray" d="M124.5,280.5A6,6,0,1,1,112.5,280.5A6,6,0,1,1,124.5,280.5"></path><path id="kity_path_197" fill="none" stroke="gray"></path></g><path id="node_outline22" fill="none" stroke="none" d="M25.5,266.5h82a5,5,0,0,1,5,5v18a5,5,0,0,1,-5,5h-82a5,5,0,0,1,-5,-5v-18a5,5,0,0,1,5,-5z" stroke-width="3"></path><g id="node_text22" fill="black"><text id="kity_text_193" text-rendering="inherit" font-size="18" dy=".8em" y="268.7999999523163" x="30.5">工业故障</text></g></g><g id="minder_node23"><path id="kity_path_284" fill="rgba(0, 0, 0, .25)" stroke="none" d="M60.5,311h0a33,33,0,0,1,33,33v0a33,33,0,0,1,-33,33h0a33,33,0,0,1,-33,-33v0a33,33,0,0,1,33,-33z" display="none"></path><g id="node_expander22" style="cursor: pointer;" display="none"><path id="kity_path_204" fill="white" stroke="gray" d="M124.5,338.5A6,6,0,1,1,112.5,338.5A6,6,0,1,1,124.5,338.5"></path><path id="kity_path_205" fill="none" stroke="gray"></path></g><path id="node_outline23" fill="none" stroke="none" d="M25.5,324.5h82a5,5,0,0,1,5,5v18a5,5,0,0,1,-5,5h-82a5,5,0,0,1,-5,-5v-18a5,5,0,0,1,5,-5z" stroke-width="3"></path><g id="node_text23" fill="black"><text id="kity_text_201" text-rendering="inherit" font-size="18" dy=".8em" y="326.7999999523163" x="30.5">矿业工程</text></g></g><g id="minder_node24"><path id="kity_path_285" fill="rgba(0, 0, 0, .25)" stroke="none" d="M60.5,369h0a33,33,0,0,1,33,33v0a33,33,0,0,1,-33,33h0a33,33,0,0,1,-33,-33v0a33,33,0,0,1,33,-33z" display="none"></path><g id="node_expander23" style="cursor: pointer;" display="none"><path id="kity_path_212" fill="white" stroke="gray" d="M124.5,396.5A6,6,0,1,1,112.5,396.5A6,6,0,1,1,124.5,396.5"></path><path id="kity_path_213" fill="none" stroke="gray"></path></g><path id="node_outline24" fill="none" stroke="none" d="M25.5,382.5h82a5,5,0,0,1,5,5v18a5,5,0,0,1,-5,5h-82a5,5,0,0,1,-5,-5v-18a5,5,0,0,1,5,-5z" stroke-width="3"></path><g id="node_text24" fill="black"><text id="kity_text_209" text-rendering="inherit" font-size="18" dy=".8em" y="384.7999999523163" x="30.5">生命科学</text></g></g><g id="minder_node25"><path id="kity_path_286" fill="rgba(0, 0, 0, .25)" stroke="none" d="M60.5,427h0a33,33,0,0,1,33,33v0a33,33,0,0,1,-33,33h0a33,33,0,0,1,-33,-33v0a33,33,0,0,1,33,-33z" display="none"></path><g id="node_expander24" style="cursor: pointer;" display="none"><path id="kity_path_220" fill="white" stroke="gray" d="M124.5,454.5A6,6,0,1,1,112.5,454.5A6,6,0,1,1,124.5,454.5"></path><path id="kity_path_221" fill="none" stroke="gray"></path></g><path id="node_outline25" fill="none" stroke="none" d="M25.5,440.5h82a5,5,0,0,1,5,5v18a5,5,0,0,1,-5,5h-82a5,5,0,0,1,-5,-5v-18a5,5,0,0,1,5,-5z" stroke-width="3"></path><g id="node_text25" fill="black"><text id="kity_text_217" text-rendering="inherit" font-size="18" dy=".8em" y="442.7999999523163" x="30.5">社会科学</text></g></g><g id="minder_node8"><path id="kity_path_266" fill="rgba(0, 0, 0, .25)" stroke="none" d="M843,6h0a34,34,0,0,1,34,34v0a34,34,0,0,1,-34,34h0a34,34,0,0,1,-34,-34v0a34,34,0,0,1,34,-34z" display="none"></path><g id="node_expander7" style="cursor: pointer;" display="none"><path id="kity_path_84" fill="white" stroke="gray" d="M801.5,34.5A6,6,0,1,1,789.5,34.5A6,6,0,1,1,801.5,34.5"></path><path id="kity_path_85" fill="none" stroke="gray"></path></g><path id="node_outline8" fill="none" stroke="none" d="M806.5,20.5h86a5,5,0,0,1,5,5v18a5,5,0,0,1,-5,5h-86a5,5,0,0,1,-5,-5v-18a5,5,0,0,1,5,-5z" stroke-width="3"></path><g id="node_text8" fill="black"><text id="kity_text_81" text-rendering="inherit" font-size="18" dy=".8em" y="22.799999952316284" x="811.5">K-means</text></g></g><g id="minder_node9" opacity="1"><path id="kity_path_267" fill="rgba(0, 0, 0, .25)" stroke="none" d="M825,79h0a19,19,0,0,1,19,19v0a19,19,0,0,1,-19,19h0a19,19,0,0,1,-19,-19v0a19,19,0,0,1,19,-19z" display="none"></path><g id="node_expander8" style="cursor: pointer;" display="none"><path id="kity_path_92" fill="white" stroke="gray" d="M801.5,92.5A6,6,0,1,1,789.5,92.5A6,6,0,1,1,801.5,92.5"></path><path id="kity_path_93" fill="none" stroke="gray"></path></g><path id="node_outline9" fill="none" stroke="none" d="M806.5,78.5h36a5,5,0,0,1,5,5v18a5,5,0,0,1,-5,5h-36a5,5,0,0,1,-5,-5v-18a5,5,0,0,1,5,-5z" stroke-width="3"></path><g id="node_text9" fill="black"><text id="kity_text_89" text-rendering="inherit" font-size="18" dy=".8em" y="80.79999995231628" x="811.5">HC</text></g></g><g id="minder_node4"><path id="kity_path_268" fill="rgba(0, 0, 0, .25)" stroke="none" d="M733,47h0a22,22,0,0,1,22,22v0a22,22,0,0,1,-22,22h0a22,22,0,0,1,-22,-22v0a22,22,0,0,1,22,-22z" display="none"></path><g id="node_expander3" style="cursor: pointer;"><path id="kity_path_52" fill="white" stroke="gray" d="M705.5,63.5A6,6,0,1,1,693.5,63.5A6,6,0,1,1,705.5,63.5"></path><path id="kity_path_53" fill="none" stroke="gray" d="M695,63.5L704,63.5"></path></g><path id="node_outline4" fill="none" stroke="none" d="M710.5,49.5h46a5,5,0,0,1,5,5v18a5,5,0,0,1,-5,5h-46a5,5,0,0,1,-5,-5v-18a5,5,0,0,1,5,-5z" stroke-width="3"></path><g id="node_text4" fill="black"><text id="kity_text_49" text-rendering="inherit" font-size="18" dy=".8em" y="51.799999952316284" x="715.5">聚类</text></g></g><g id="minder_node10" opacity="1"><path id="kity_path_269" fill="rgba(0, 0, 0, .25)" stroke="none" d="M830,133h0a23,23,0,0,1,23,23v0a23,23,0,0,1,-23,23h0a23,23,0,0,1,-23,-23v0a23,23,0,0,1,23,-23z" display="none"></path><g id="node_expander9" style="cursor: pointer;" display="none"><path id="kity_path_100" fill="white" stroke="gray" d="M801.5,150.5A6,6,0,1,1,789.5,150.5A6,6,0,1,1,801.5,150.5"></path><path id="kity_path_101" fill="none" stroke="gray"></path></g><path id="node_outline10" fill="none" stroke="none" d="M806.5,136.5h51a5,5,0,0,1,5,5v18a5,5,0,0,1,-5,5h-51a5,5,0,0,1,-5,-5v-18a5,5,0,0,1,5,-5z" stroke-width="3"></path><g id="node_text10" fill="black"><text id="kity_text_97" text-rendering="inherit" font-size="18" dy=".8em" y="138.79999995231628" x="811.5">KNN</text></g></g><g id="minder_node11"><path id="kity_path_270" fill="rgba(0, 0, 0, .25)" stroke="none" d="M841.5,181h0a33,33,0,0,1,33,33v0a33,33,0,0,1,-33,33h0a33,33,0,0,1,-33,-33v0a33,33,0,0,1,33,-33z" display="none"></path><g id="node_expander10" style="cursor: pointer;" display="none"><path id="kity_path_108" fill="white" stroke="gray" d="M801.5,208.5A6,6,0,1,1,789.5,208.5A6,6,0,1,1,801.5,208.5"></path><path id="kity_path_109" fill="none" stroke="gray"></path></g><path id="node_outline11" fill="none" stroke="none" d="M806.5,194.5h82a5,5,0,0,1,5,5v18a5,5,0,0,1,-5,5h-82a5,5,0,0,1,-5,-5v-18a5,5,0,0,1,5,-5z" stroke-width="3"></path><g id="node_text11" fill="black"><text id="kity_text_105" text-rendering="inherit" font-size="18" dy=".8em" y="196.79999995231628" x="811.5">神经网络</text></g></g><g id="minder_node12" opacity="1"><path id="kity_path_271" fill="rgba(0, 0, 0, .25)" stroke="none" d="M835,245h0a27,27,0,0,1,27,27v0a27,27,0,0,1,-27,27h0a27,27,0,0,1,-27,-27v0a27,27,0,0,1,27,-27z" display="none"></path><g id="node_expander11" style="cursor: pointer;" display="none"><path id="kity_path_116" fill="white" stroke="gray" d="M801.5,266.5A6,6,0,1,1,789.5,266.5A6,6,0,1,1,801.5,266.5"></path><path id="kity_path_117" fill="none" stroke="gray"></path></g><path id="node_outline12" fill="none" stroke="none" d="M806.5,252.5h64a5,5,0,0,1,5,5v18a5,5,0,0,1,-5,5h-64a5,5,0,0,1,-5,-5v-18a5,5,0,0,1,5,-5z" stroke-width="3"></path><g id="node_text12" fill="black"><text id="kity_text_113" text-rendering="inherit" font-size="18" dy=".8em" y="254.79999995231628" x="811.5">决策树</text></g></g><g id="minder_node5"><path id="kity_path_272" fill="rgba(0, 0, 0, .25)" stroke="none" d="M733,192h0a22,22,0,0,1,22,22v0a22,22,0,0,1,-22,22h0a22,22,0,0,1,-22,-22v0a22,22,0,0,1,22,-22z" display="none"></path><g id="node_expander4" style="cursor: pointer;"><path id="kity_path_60" fill="white" stroke="gray" d="M705.5,208.5A6,6,0,1,1,693.5,208.5A6,6,0,1,1,705.5,208.5"></path><path id="kity_path_61" fill="none" stroke="gray" d="M695,208.5L704,208.5"></path></g><path id="node_outline5" fill="none" stroke="none" d="M710.5,194.5h46a5,5,0,0,1,5,5v18a5,5,0,0,1,-5,5h-46a5,5,0,0,1,-5,-5v-18a5,5,0,0,1,5,-5z" stroke-width="3"></path><g id="node_text5" fill="black"><text id="kity_text_57" text-rendering="inherit" font-size="18" dy=".8em" y="196.79999995231628" x="715.5">分类</text></g></g><g id="minder_node14"><path id="kity_path_273" fill="rgba(0, 0, 0, .25)" stroke="none" d="M841.5,297h0a33,33,0,0,1,33,33v0a33,33,0,0,1,-33,33h0a33,33,0,0,1,-33,-33v0a33,33,0,0,1,33,-33z" display="none"></path><g id="node_expander13" style="cursor: pointer;" display="none"><path id="kity_path_132" fill="white" stroke="gray" d="M801.5,324.5A6,6,0,1,1,789.5,324.5A6,6,0,1,1,801.5,324.5"></path><path id="kity_path_133" fill="none" stroke="gray" d="M791,324.5L800,324.5"></path></g><path id="node_outline14" fill="none" stroke="none" d="M806.5,310.5h82a5,5,0,0,1,5,5v18a5,5,0,0,1,-5,5h-82a5,5,0,0,1,-5,-5v-18a5,5,0,0,1,5,-5z" stroke-width="3"></path><g id="node_text14" fill="black"><text id="kity_text_129" text-rendering="inherit" font-size="18" dy=".8em" y="312.7999999523163" x="811.5">一元回归</text></g></g><g id="minder_node16"><path id="kity_path_274" fill="rgba(0, 0, 0, .25)" stroke="none" d="M841.5,355h0a33,33,0,0,1,33,33v0a33,33,0,0,1,-33,33h0a33,33,0,0,1,-33,-33v0a33,33,0,0,1,33,-33z" display="none"></path><g id="node_expander15" style="cursor: pointer;" display="none"><path id="kity_path_148" fill="white" stroke="gray" d="M801.5,382.5A6,6,0,1,1,789.5,382.5A6,6,0,1,1,801.5,382.5"></path><path id="kity_path_149" fill="none" stroke="gray"></path></g><path id="node_outline16" fill="none" stroke="none" d="M806.5,368.5h82a5,5,0,0,1,5,5v18a5,5,0,0,1,-5,5h-82a5,5,0,0,1,-5,-5v-18a5,5,0,0,1,5,-5z" stroke-width="3"></path><g id="node_text16" fill="black"><text id="kity_text_145" text-rendering="inherit" font-size="18" dy=".8em" y="370.7999999523163" x="811.5">多元回归</text></g></g><g id="minder_node17"><path id="kity_path_275" fill="rgba(0, 0, 0, .25)" stroke="none" d="M841.5,413h0a33,33,0,0,1,33,33v0a33,33,0,0,1,-33,33h0a33,33,0,0,1,-33,-33v0a33,33,0,0,1,33,-33z" display="none"></path><g id="node_expander16" style="cursor: pointer;" display="none"><path id="kity_path_156" fill="white" stroke="gray" d="M801.5,440.5A6,6,0,1,1,789.5,440.5A6,6,0,1,1,801.5,440.5"></path><path id="kity_path_157" fill="none" stroke="gray"></path></g><path id="node_outline17" fill="none" stroke="none" d="M806.5,426.5h82a5,5,0,0,1,5,5v18a5,5,0,0,1,-5,5h-82a5,5,0,0,1,-5,-5v-18a5,5,0,0,1,5,-5z" stroke-width="3"></path><g id="node_text17" fill="black"><text id="kity_text_153" text-rendering="inherit" font-size="18" dy=".8em" y="428.7999999523163" x="811.5">逐步回归</text></g></g><g id="minder_node18" opacity="1"><path id="kity_path_276" fill="rgba(0, 0, 0, .25)" stroke="none" d="M852.5,460h0a44,44,0,0,1,44,44v0a44,44,0,0,1,-44,44h0a44,44,0,0,1,-44,-44v0a44,44,0,0,1,44,-44z" display="none"></path><g id="node_expander17" style="cursor: pointer;" display="none"><path id="kity_path_164" fill="white" stroke="gray" d="M801.5,498.5A6,6,0,1,1,789.5,498.5A6,6,0,1,1,801.5,498.5"></path><path id="kity_path_165" fill="none" stroke="gray"></path></g><path id="node_outline18" fill="none" stroke="none" d="M806.5,484.5h112a5,5,0,0,1,5,5v18a5,5,0,0,1,-5,5h-112a5,5,0,0,1,-5,-5v-18a5,5,0,0,1,5,-5z" stroke-width="3"></path><g id="node_text18" fill="black"><text id="kity_text_161" text-rendering="inherit" font-size="18" dy=".8em" y="486.7999999523163" x="811.5">Logistic回归</text></g></g><g id="minder_node6"><path id="kity_path_277" fill="rgba(0, 0, 0, .25)" stroke="none" d="M732.5,396h0a21,21,0,0,1,21,21v0a21,21,0,0,1,-21,21h0a21,21,0,0,1,-21,-21v0a21,21,0,0,1,21,-21z" display="none"></path><g id="node_expander5" style="cursor: pointer;"><path id="kity_path_68" fill="white" stroke="gray" d="M705.5,411.5A6,6,0,1,1,693.5,411.5A6,6,0,1,1,705.5,411.5"></path><path id="kity_path_69" fill="none" stroke="gray" d="M695,411.5L704,411.5"></path></g><path id="node_outline6" fill="none" stroke="none" d="M710.5,397.5h46a5,5,0,0,1,5,5v18a5,5,0,0,1,-5,5h-46a5,5,0,0,1,-5,-5v-18a5,5,0,0,1,5,-5z" stroke-width="3"></path><g id="node_text6" fill="black"><text id="kity_text_65" text-rendering="inherit" font-size="18" dy=".8em" y="399.7999999523163" x="715.5">回归</text></g></g><g id="minder_node19" opacity="1"><path id="kity_path_278" fill="rgba(0, 0, 0, .25)" stroke="none" d="M873,533h0a29,29,0,0,1,29,29v0a29,29,0,0,1,-29,29h0a29,29,0,0,1,-29,-29v0a29,29,0,0,1,29,-29z" display="none"></path><g id="node_expander18" style="cursor: pointer;" display="none"><path id="kity_path_172" fill="white" stroke="gray" d="M837.5,556.5A6,6,0,1,1,825.5,556.5A6,6,0,1,1,837.5,556.5"></path><path id="kity_path_173" fill="none" stroke="gray"></path></g><path id="node_outline19" fill="none" stroke="none" d="M842.5,542.5h69a5,5,0,0,1,5,5v18a5,5,0,0,1,-5,5h-69a5,5,0,0,1,-5,-5v-18a5,5,0,0,1,5,-5z" stroke-width="3"></path><g id="node_text19" fill="black"><text id="kity_text_169" text-rendering="inherit" font-size="18" dy=".8em" y="544.7999999523163" x="847.5">Apriori</text></g></g><g id="minder_node13"><path id="kity_path_279" fill="rgba(0, 0, 0, .25)" stroke="none" d="M745.5,529h0a33,33,0,0,1,33,33v0a33,33,0,0,1,-33,33h0a33,33,0,0,1,-33,-33v0a33,33,0,0,1,33,-33z" display="none"></path><g id="node_expander12" style="cursor: pointer;"><path id="kity_path_124" fill="white" stroke="gray" d="M705.5,556.5A6,6,0,1,1,693.5,556.5A6,6,0,1,1,705.5,556.5"></path><path id="kity_path_125" fill="none" stroke="gray" d="M695,556.5L704,556.5"></path></g><path id="node_outline13" fill="none" stroke="none" d="M710.5,542.5h82a5,5,0,0,1,5,5v18a5,5,0,0,1,-5,5h-82a5,5,0,0,1,-5,-5v-18a5,5,0,0,1,5,-5z" stroke-width="3"></path><g id="node_text13" fill="black"><text id="kity_text_121" text-rendering="inherit" font-size="18" dy=".8em" y="544.7999999523163" x="715.5">关联规则</text></g></g></g></g></svg>