<svg id="kity_svg_6" xmlns="http://www.w3.org/2000/svg" xmlns:xlink="http://www.w3.org/1999/xlink" version="1.1" width="861" height="800" style="background: rgb(251, 251, 251); visibility: visible;" viewBox="0 0 861 800"><defs id="kity_defs_7"><linearGradient id="kity_linearGradient_17" x1="0" y1="0" x2="0" y2="1"><stop id="kity_stop_18" offset="0" stop-color="rgb(255, 255, 255)"></stop><stop id="kity_stop_19" offset="1" stop-color="rgb(204, 204, 204)"></stop></linearGradient><marker id="kity_marker_2" orient="auto" refX="6" refY="0" viewBox="-7 -7 14 14" markerWidth="7" markerHeight="7" markerUnits="userSpaceOnUse"><path id="kity_path_3" fill="rgb(191, 115, 115)" stroke="none" d="M6,0A6,6,0,1,1,-6,0A6,6,0,1,1,6,0"></path></marker></defs><g id="kity_g_8"><g id="minder1" text-rendering="optimize-speed"><g id="minder_connect_group1"><path id="kity_path_31" fill="none" stroke="rgb(191, 115, 115)" stroke-width="1" d="M92.5,336.5A190,251,0,0,1,282.5,85.5"></path><path id="kity_path_39" fill="none" stroke="rgb(191, 115, 115)" stroke-width="1" d="M92.5,336.5A190,96,0,0,1,282.5,240.5"></path><path id="kity_path_47" fill="none" stroke="rgb(191, 115, 115)" stroke-width="1" d="M92.5,336.5A190,251,0,0,0,282.5,587.5"></path><path id="kity_path_55" fill="none" stroke="rgb(191, 115, 115)" stroke-width="1" d="M444.5,85.5C464.5,85.5,464.5,37.5,484.5,37.5"></path><path id="kity_path_63" fill="none" stroke="rgb(191, 115, 115)" stroke-width="1" d="M444.5,85.5C464.5,85.5,464.5,133.5,484.5,133.5"></path><path id="kity_path_79" fill="none" stroke="rgb(191, 115, 115)" stroke-width="1" d="M624.5,133.5C644.5,133.5,644.5,101.5,664.5,101.5"></path><path id="kity_path_87" fill="none" stroke="rgb(191, 115, 115)" stroke-width="1" d="M624.5,133.5C644.5,133.5,644.5,165.5,664.5,165.5"></path><path id="kity_path_95" fill="none" stroke="rgb(191, 115, 115)" stroke-width="1" d="M468.5,587.5C488.5,587.5,488.5,411.5,508.5,411.5"></path><path id="kity_path_103" fill="none" stroke="rgb(191, 115, 115)" stroke-width="1" d="M468.5,587.5C488.5,587.5,488.5,763.5,508.5,763.5"></path><path id="kity_path_127" fill="none" stroke="rgb(191, 115, 115)" stroke-width="1" d="M468.5,587.5C488.5,587.5,488.5,699.5,508.5,699.5"></path><path id="kity_path_135" fill="none" stroke="rgb(191, 115, 115)" stroke-width="1" d="M468.5,587.5C488.5,587.5,488.5,635.5,508.5,635.5"></path><path id="kity_path_143" fill="none" stroke="rgb(191, 115, 115)" stroke-width="1" d="M576.5,411.5C596.5,411.5,596.5,315.5,616.5,315.5"></path><path id="kity_path_151" fill="none" stroke="rgb(191, 115, 115)" stroke-width="1" d="M576.5,411.5C596.5,411.5,596.5,379.5,616.5,379.5"></path><path id="kity_path_159" fill="none" stroke="rgb(191, 115, 115)" stroke-width="1" d="M576.5,411.5C596.5,411.5,596.5,507.5,616.5,507.5"></path><path id="kity_path_167" fill="none" stroke="rgb(191, 115, 115)" stroke-width="1" d="M733.5,507.5C753.5,507.5,753.5,443.5,773.5,443.5"></path><path id="kity_path_175" fill="none" stroke="rgb(191, 115, 115)" stroke-width="1" d="M733.5,507.5C753.5,507.5,753.5,507.5,773.5,507.5"></path><path id="kity_path_183" fill="none" stroke="rgb(191, 115, 115)" stroke-width="1" d="M733.5,507.5C753.5,507.5,753.5,571.5,773.5,571.5"></path></g><g id="minder_node1"><path id="node_outline1" fill="rgb(191, 115, 115)" stroke="rgb(191, 115, 115)" d="M25.5,312.5h134a5,5,0,0,1,5,5v38a5,5,0,0,1,-5,5h-134a5,5,0,0,1,-5,-5v-38a5,5,0,0,1,5,-5z" stroke-width="3"></path><g id="node_text1" fill="white"><text id="kity_text_22" text-rendering="inherit" font-size="24" dy=".8em" y="320.90000009536743" x="44.5">数据类型</text></g></g><g id="kity_g_12"><path id="kity_path_13" fill="none" stroke="none" d="M44.5,336.5h0v0h0z"></path></g><g id="kity_g_14"><path id="kity_path_15" fill="none" stroke="none" d="M44.5,336.5h0v0h0z"></path><path id="kity_path_16" fill="none" stroke="none"></path></g><g id="minder_node2"><g id="node_expander1" style="cursor: pointer;"><path id="kity_path_36" fill="white" stroke="gray" d="M283.5,85.5A6,6,0,1,1,271.5,85.5A6,6,0,1,1,283.5,85.5"></path><path id="kity_path_37" fill="none" stroke="gray" d="M273,85.5L282,85.5"></path></g><path id="node_outline2" fill="rgb(246, 238, 238)" stroke="rgb(191, 115, 115)" d="M287.5,67.5h154a3,3,0,0,1,3,3v30a3,3,0,0,1,-3,3h-154a3,3,0,0,1,-3,-3v-30a3,3,0,0,1,3,-3z" stroke-width="1"></path><g id="node_text2" fill="black"><text id="kity_text_33" text-rendering="inherit" font-size="24" dy=".8em" y="69.90000009536743" x="304.5">结构化数据</text></g></g><g id="minder_node3"><g id="node_expander2" style="cursor: pointer;" display="none"><path id="kity_path_44" fill="white" stroke="gray" d="M283.5,240.5A6,6,0,1,1,271.5,240.5A6,6,0,1,1,283.5,240.5"></path><path id="kity_path_45" fill="none" stroke="gray"></path></g><path id="node_outline3" fill="rgb(246, 238, 238)" stroke="rgb(191, 115, 115)" d="M287.5,222.5h178a3,3,0,0,1,3,3v30a3,3,0,0,1,-3,3h-178a3,3,0,0,1,-3,-3v-30a3,3,0,0,1,3,-3z" stroke-width="1"></path><g id="node_text3" fill="black"><text id="kity_text_41" text-rendering="inherit" font-size="24" dy=".8em" y="224.90000009536743" x="304.5">半结构化数据</text></g></g><g id="minder_node4"><g id="node_expander3" style="cursor: pointer;"><path id="kity_path_52" fill="white" stroke="gray" d="M283.5,587.5A6,6,0,1,1,271.5,587.5A6,6,0,1,1,283.5,587.5"></path><path id="kity_path_53" fill="none" stroke="gray" d="M273,587.5L282,587.5"></path></g><path id="node_outline4" fill="rgb(246, 238, 238)" stroke="rgb(191, 115, 115)" d="M287.5,569.5h178a3,3,0,0,1,3,3v30a3,3,0,0,1,-3,3h-178a3,3,0,0,1,-3,-3v-30a3,3,0,0,1,3,-3z" stroke-width="1"></path><g id="node_text4" fill="black"><text id="kity_text_49" text-rendering="inherit" font-size="24" dy=".8em" y="571.9000000953674" x="304.5">非结构化数据</text></g></g><g id="minder_node5"><g id="node_expander4" style="cursor: pointer;" display="none"><path id="kity_path_60" fill="white" stroke="gray" d="M484.5,37.5A6,6,0,1,1,472.5,37.5A6,6,0,1,1,484.5,37.5"></path><path id="kity_path_61" fill="none" stroke="gray"></path></g><path id="node_outline5" fill="none" stroke="none" d="M489.5,20.5h130a5,5,0,0,1,5,5v24a5,5,0,0,1,-5,5h-130a5,5,0,0,1,-5,-5v-24a5,5,0,0,1,5,-5z" stroke-width="3"></path><g id="node_text5" fill="black"><text id="kity_text_57" text-rendering="inherit" font-size="24" dy=".8em" y="21.90000009536743" x="494.5">关系数据表</text></g></g><g id="minder_node6"><g id="node_expander5" style="cursor: pointer;"><path id="kity_path_68" fill="white" stroke="gray" d="M484.5,133.5A6,6,0,1,1,472.5,133.5A6,6,0,1,1,484.5,133.5"></path><path id="kity_path_69" fill="none" stroke="gray" d="M474,133.5L483,133.5"></path></g><path id="node_outline6" fill="none" stroke="none" d="M489.5,116.5h130a5,5,0,0,1,5,5v24a5,5,0,0,1,-5,5h-130a5,5,0,0,1,-5,-5v-24a5,5,0,0,1,5,-5z" stroke-width="3"></path><g id="node_text6" fill="black"><text id="kity_text_65" text-rendering="inherit" font-size="24" dy=".8em" y="117.90000009536743" x="494.5">结构化图谱</text></g></g><g id="minder_node8"><g id="node_expander7" style="cursor: pointer;" display="none"><path id="kity_path_84" fill="white" stroke="gray" d="M664.5,101.5A6,6,0,1,1,652.5,101.5A6,6,0,1,1,664.5,101.5"></path><path id="kity_path_85" fill="none" stroke="gray"></path></g><path id="node_outline8" fill="none" stroke="none" d="M669.5,84.5h107a5,5,0,0,1,5,5v24a5,5,0,0,1,-5,5h-107a5,5,0,0,1,-5,-5v-24a5,5,0,0,1,5,-5z" stroke-width="3"></path><g id="node_text8" fill="black"><text id="kity_text_81" text-rendering="inherit" font-size="24" dy=".8em" y="85.90000009536743" x="674.5">知识图谱</text></g></g><g id="minder_node9"><g id="node_expander8" style="cursor: pointer;" display="none"><path id="kity_path_92" fill="white" stroke="gray" d="M664.5,165.5A6,6,0,1,1,652.5,165.5A6,6,0,1,1,664.5,165.5"></path><path id="kity_path_93" fill="none" stroke="gray"></path></g><path id="node_outline9" fill="none" stroke="none" d="M669.5,148.5h58a5,5,0,0,1,5,5v24a5,5,0,0,1,-5,5h-58a5,5,0,0,1,-5,-5v-24a5,5,0,0,1,5,-5z" stroke-width="3"></path><g id="node_text9" fill="black"><text id="kity_text_89" text-rendering="inherit" font-size="24" dy=".8em" y="149.90000009536743" x="674.5">本体</text></g></g><g id="minder_node10"><g id="node_expander9" style="cursor: pointer;"><path id="kity_path_100" fill="white" stroke="gray" d="M508.5,411.5A6,6,0,1,1,496.5,411.5A6,6,0,1,1,508.5,411.5"></path><path id="kity_path_101" fill="none" stroke="gray" d="M498,411.5L507,411.5"></path></g><path id="node_outline10" fill="none" stroke="none" d="M513.5,394.5h58a5,5,0,0,1,5,5v24a5,5,0,0,1,-5,5h-58a5,5,0,0,1,-5,-5v-24a5,5,0,0,1,5,-5z" stroke-width="3"></path><g id="node_text10" fill="black"><text id="kity_text_97" text-rendering="inherit" font-size="24" dy=".8em" y="395.90000009536743" x="518.5">文本</text></g></g><g id="minder_node11"><g id="node_expander10" style="cursor: pointer;" display="none"><path id="kity_path_108" fill="white" stroke="gray" d="M508.5,763.5A6,6,0,1,1,496.5,763.5A6,6,0,1,1,508.5,763.5"></path><path id="kity_path_109" fill="none" stroke="gray"></path></g><path id="node_outline11" fill="none" stroke="none" d="M513.5,746.5h59a5,5,0,0,1,5,5v24a5,5,0,0,1,-5,5h-59a5,5,0,0,1,-5,-5v-24a5,5,0,0,1,5,-5z" stroke-width="3"></path><g id="node_text11" fill="black"><text id="kity_text_105" text-rendering="inherit" font-size="24" dy=".8em" y="747.9000000953674" x="518.5">音频</text></g></g><g id="minder_node14"><g id="node_expander13" style="cursor: pointer;" display="none"><path id="kity_path_132" fill="white" stroke="gray" d="M508.5,699.5A6,6,0,1,1,496.5,699.5A6,6,0,1,1,508.5,699.5"></path><path id="kity_path_133" fill="none" stroke="gray"></path></g><path id="node_outline14" fill="none" stroke="none" d="M513.5,682.5h59a5,5,0,0,1,5,5v24a5,5,0,0,1,-5,5h-59a5,5,0,0,1,-5,-5v-24a5,5,0,0,1,5,-5z" stroke-width="3"></path><g id="node_text14" fill="black"><text id="kity_text_129" text-rendering="inherit" font-size="24" dy=".8em" y="683.9000000953674" x="518.5">视频</text></g></g><g id="minder_node15"><g id="node_expander14" style="cursor: pointer;" display="none"><path id="kity_path_140" fill="white" stroke="gray" d="M508.5,635.5A6,6,0,1,1,496.5,635.5A6,6,0,1,1,508.5,635.5"></path><path id="kity_path_141" fill="none" stroke="gray"></path></g><path id="node_outline15" fill="none" stroke="none" d="M513.5,618.5h58a5,5,0,0,1,5,5v24a5,5,0,0,1,-5,5h-58a5,5,0,0,1,-5,-5v-24a5,5,0,0,1,5,-5z" stroke-width="3"></path><g id="node_text15" fill="black"><text id="kity_text_137" text-rendering="inherit" font-size="24" dy=".8em" y="619.9000000953674" x="518.5">图片</text></g></g><g id="minder_node16"><g id="node_expander15" style="cursor: pointer;" display="none"><path id="kity_path_148" fill="white" stroke="gray" d="M616.5,315.5A6,6,0,1,1,604.5,315.5A6,6,0,1,1,616.5,315.5"></path><path id="kity_path_149" fill="none" stroke="gray"></path></g><path id="node_outline16" fill="none" stroke="none" d="M621.5,298.5h58a5,5,0,0,1,5,5v24a5,5,0,0,1,-5,5h-58a5,5,0,0,1,-5,-5v-24a5,5,0,0,1,5,-5z" stroke-width="3"></path><g id="node_text16" fill="black"><text id="kity_text_145" text-rendering="inherit" font-size="24" dy=".8em" y="299.90000009536743" x="626.5">纸本</text></g></g><g id="minder_node17"><g id="node_expander16" style="cursor: pointer;" display="none"><path id="kity_path_156" fill="white" stroke="gray" d="M616.5,379.5A6,6,0,1,1,604.5,379.5A6,6,0,1,1,616.5,379.5"></path><path id="kity_path_157" fill="none" stroke="gray"></path></g><path id="node_outline17" fill="none" stroke="none" d="M621.5,362.5h106a5,5,0,0,1,5,5v24a5,5,0,0,1,-5,5h-106a5,5,0,0,1,-5,-5v-24a5,5,0,0,1,5,-5z" stroke-width="3"></path><g id="node_text17" fill="black"><text id="kity_text_153" text-rendering="inherit" font-size="24" dy=".8em" y="363.90000009536743" x="626.5">数字文本</text></g></g><g id="minder_node18"><g id="node_expander17" style="cursor: pointer;"><path id="kity_path_164" fill="white" stroke="gray" d="M616.5,507.5A6,6,0,1,1,604.5,507.5A6,6,0,1,1,616.5,507.5"></path><path id="kity_path_165" fill="none" stroke="gray" d="M606,507.5L615,507.5"></path></g><path id="node_outline18" fill="none" stroke="none" d="M621.5,490.5h107a5,5,0,0,1,5,5v24a5,5,0,0,1,-5,5h-107a5,5,0,0,1,-5,-5v-24a5,5,0,0,1,5,-5z" stroke-width="3"></path><g id="node_text18" fill="black"><text id="kity_text_161" text-rendering="inherit" font-size="24" dy=".8em" y="491.90000009536743" x="626.5">媒体文本</text></g></g><g id="minder_node19"><g id="node_expander18" style="cursor: pointer;" display="none"><path id="kity_path_172" fill="white" stroke="gray" d="M773.5,443.5A6,6,0,1,1,761.5,443.5A6,6,0,1,1,773.5,443.5"></path><path id="kity_path_173" fill="none" stroke="gray"></path></g><path id="node_outline19" fill="none" stroke="none" d="M778.5,426.5h58a5,5,0,0,1,5,5v24a5,5,0,0,1,-5,5h-58a5,5,0,0,1,-5,-5v-24a5,5,0,0,1,5,-5z" stroke-width="3"></path><g id="node_text19" fill="black"><text id="kity_text_169" text-rendering="inherit" font-size="24" dy=".8em" y="427.90000009536743" x="783.5">微博</text></g></g><g id="minder_node20"><g id="node_expander19" style="cursor: pointer;" display="none"><path id="kity_path_180" fill="white" stroke="gray" d="M773.5,507.5A6,6,0,1,1,761.5,507.5A6,6,0,1,1,773.5,507.5"></path><path id="kity_path_181" fill="none" stroke="gray"></path></g><path id="node_outline20" fill="none" stroke="none" d="M778.5,490.5h58a5,5,0,0,1,5,5v24a5,5,0,0,1,-5,5h-58a5,5,0,0,1,-5,-5v-24a5,5,0,0,1,5,-5z" stroke-width="3"></path><g id="node_text20" fill="black"><text id="kity_text_177" text-rendering="inherit" font-size="24" dy=".8em" y="491.90000009536743" x="783.5">微信</text></g></g><g id="minder_node21"><g id="node_expander20" style="cursor: pointer;" display="none"><path id="kity_path_188" fill="white" stroke="gray" d="M773.5,571.5A6,6,0,1,1,761.5,571.5A6,6,0,1,1,773.5,571.5"></path><path id="kity_path_189" fill="none" stroke="gray"></path></g><path id="node_outline21" fill="none" stroke="none" d="M778.5,554.5h58a5,5,0,0,1,5,5v24a5,5,0,0,1,-5,5h-58a5,5,0,0,1,-5,-5v-24a5,5,0,0,1,5,-5z" stroke-width="3"></path><g id="node_text21" fill="black"><text id="kity_text_185" text-rendering="inherit" font-size="24" dy=".8em" y="555.9000000953674" x="783.5">论坛</text></g></g></g></g></svg>