<svg id="kity_svg_6" xmlns="http://www.w3.org/2000/svg" xmlns:xlink="http://www.w3.org/1999/xlink" version="1.1" width="853" height="377" style="background: rgb(251, 251, 251); visibility: visible;" viewBox="0 0 853 377"><defs id="kity_defs_7"><linearGradient id="kity_linearGradient_17" x1="0" y1="0" x2="0" y2="1"><stop id="kity_stop_18" offset="0" stop-color="rgb(255, 255, 255)"></stop><stop id="kity_stop_19" offset="1" stop-color="rgb(204, 204, 204)"></stop></linearGradient><marker id="kity_marker_2" orient="auto" refX="6" refY="0" viewBox="-7 -7 14 14" markerWidth="7" markerHeight="7" markerUnits="userSpaceOnUse"><path id="kity_path_3" fill="rgb(115, 161, 191)" stroke="none" d="M6,0A6,6,0,1,1,-6,0A6,6,0,1,1,6,0"></path></marker></defs><g id="kity_g_8"><g id="minder1" text-rendering="optimize-speed"><g id="minder_connect_group1"><path id="kity_path_31" fill="none" stroke="rgb(115, 161, 191)" stroke-width="1" d="M429.5,214.5A89,1,0,0,1,518.5,213.5"></path><path id="kity_path_119" fill="none" stroke="rgb(115, 161, 191)" stroke-width="1" d="M429.5,214.5A94,0,0,0,1,335.5,214.5"></path><path id="kity_path_206" fill="none" stroke="rgb(115, 161, 191)" stroke-width="1" d="M725.5,97.5C740.5,97.5,740.5,45.5,755.5,45.5L809.5,45.5"></path><path id="kity_path_207" fill="none" stroke="rgb(115, 161, 191)" stroke-width="1" d="M725.5,97.5C740.5,97.5,740.5,97.5,755.5,97.5L810.5,97.5"></path><path id="kity_path_208" fill="none" stroke="rgb(115, 161, 191)" stroke-width="1" d="M725.5,97.5C740.5,97.5,740.5,149.5,755.5,149.5L833.5,149.5"></path><path id="kity_path_209" fill="none" stroke="rgb(115, 161, 191)" stroke-width="1" d="M617.5,213.5C632.5,213.5,632.5,97.5,647.5,97.5L725.5,97.5"></path><path id="kity_path_210" fill="none" stroke="rgb(115, 161, 191)" stroke-width="1" d="M725.5,253.5C740.5,253.5,740.5,201.5,755.5,201.5L809.5,201.5"></path><path id="kity_path_211" fill="none" stroke="rgb(115, 161, 191)" stroke-width="1" d="M725.5,253.5C740.5,253.5,740.5,253.5,755.5,253.5L822.5,253.5"></path><path id="kity_path_212" fill="none" stroke="rgb(115, 161, 191)" stroke-width="1" d="M725.5,253.5C740.5,253.5,740.5,305.5,755.5,305.5L809.5,305.5"></path><path id="kity_path_213" fill="none" stroke="rgb(115, 161, 191)" stroke-width="1" d="M617.5,213.5C632.5,213.5,632.5,253.5,647.5,253.5L725.5,253.5"></path><path id="kity_path_214" fill="none" stroke="rgb(115, 161, 191)" stroke-width="1" d="M617.5,213.5C632.5,213.5,632.5,357.5,647.5,357.5L726.5,357.5"></path><path id="kity_path_215" fill="none" stroke="rgb(115, 161, 191)" stroke-width="1" d="M129.5,163.5C114.5,163.5,114.5,137.5,99.5,137.5L21.5,137.5"></path><path id="kity_path_216" fill="none" stroke="rgb(115, 161, 191)" stroke-width="1" d="M129.5,163.5C114.5,163.5,114.5,189.5,99.5,189.5L21.5,189.5"></path><path id="kity_path_217" fill="none" stroke="rgb(115, 161, 191)" stroke-width="1" d="M237.5,214.5C222.5,214.5,222.5,163.5,207.5,163.5L129.5,163.5"></path><path id="kity_path_218" fill="none" stroke="rgb(115, 161, 191)" stroke-width="1" d="M129.5,293.5C114.5,293.5,114.5,241.5,99.5,241.5L20.5,241.5"></path><path id="kity_path_219" fill="none" stroke="rgb(115, 161, 191)" stroke-width="1" d="M129.5,293.5C114.5,293.5,114.5,293.5,99.5,293.5L20.5,293.5"></path><path id="kity_path_220" fill="none" stroke="rgb(115, 161, 191)" stroke-width="1" d="M129.5,293.5C114.5,293.5,114.5,345.5,99.5,345.5L21.5,345.5"></path><path id="kity_path_221" fill="none" stroke="rgb(115, 161, 191)" stroke-width="1" d="M237.5,214.5C222.5,214.5,222.5,293.5,207.5,293.5L129.5,293.5"></path></g><g id="minder_node1"><path id="node_outline1" fill="rgb(115, 161, 191)" stroke="rgb(115, 161, 191)" d="M378.5,194.5h102a5,5,0,0,1,5,5v30a5,5,0,0,1,-5,5h-102a5,5,0,0,1,-5,-5v-30a5,5,0,0,1,5,-5z" stroke-width="3"></path><g id="node_text1" fill="white"><text id="kity_text_22" text-rendering="inherit" font-size="16" dy=".8em" y="204.09999990463257" x="397.5">舆情监控</text></g></g><g id="kity_g_12" display="none"><path id="kity_path_13" fill="none" stroke="none" d="M397.5,214.5h0v0h0z"></path></g><g id="kity_g_14" display="none"><path id="kity_path_15" fill="none" stroke="none" d="M397.5,214.5h0v0h0z"></path><path id="kity_path_16" fill="none" stroke="none"></path></g><g id="minder_node2" opacity="1"><g id="node_expander1" style="cursor: pointer;"><path id="kity_path_36" fill="white" stroke="gray" d="M519.5,213.5A6,6,0,1,1,507.5,213.5A6,6,0,1,1,519.5,213.5"></path><path id="kity_path_37" fill="none" stroke="gray" d="M509,213.5L518,213.5"></path></g><path id="node_outline2" fill="rgb(238, 243, 246)" stroke="rgb(115, 161, 191)" d="M523.5,200.5h91a3,3,0,0,1,3,3v20a3,3,0,0,1,-3,3h-91a3,3,0,0,1,-3,-3v-20a3,3,0,0,1,3,-3z" stroke-width="1"></path><g id="node_text2" fill="black"><text id="kity_text_33" text-rendering="inherit" font-size="14" dy=".8em" y="204.40000009536743" x="540.5">数据来源</text></g></g><g id="minder_node13" opacity="1"><g id="node_expander12" style="cursor: pointer;"><path id="kity_path_124" fill="white" stroke="gray" d="M346.5,214.5A6,6,0,1,1,334.5,214.5A6,6,0,1,1,346.5,214.5"></path><path id="kity_path_125" fill="none" stroke="gray" d="M336,214.5L345,214.5"></path></g><path id="node_outline13" fill="rgb(238, 243, 246)" stroke="rgb(115, 161, 191)" d="M240.5,201.5h90a3,3,0,0,1,3,3v20a3,3,0,0,1,-3,3h-90a3,3,0,0,1,-3,-3v-20a3,3,0,0,1,3,-3z" stroke-width="1"></path><g id="node_text13" fill="black"><text id="kity_text_121" text-rendering="inherit" font-size="14" dy=".8em" y="205.40000009536743" x="257.5">价值分类</text></g></g><g id="minder_node4"><g id="node_expander3" style="cursor: pointer;" display="none"><path id="kity_path_52" fill="white" stroke="gray" d="M765.5,31.5A6,6,0,1,1,753.5,31.5A6,6,0,1,1,765.5,31.5"></path><path id="kity_path_53" fill="none" stroke="gray" d="M755,31.5L764,31.5"></path></g><path id="node_outline4" fill="none" stroke="none" d="M770.5,20.5h34a5,5,0,0,1,5,5v12a5,5,0,0,1,-5,5h-34a5,5,0,0,1,-5,-5v-12a5,5,0,0,1,5,-5z" stroke-width="3"></path><g id="node_text4" fill="black"><text id="kity_text_49" text-rendering="inherit" font-size="12" dy=".8em" y="23.700000047683716" x="775.5">访谈</text></g></g><g id="minder_node6"><g id="node_expander5" style="cursor: pointer;" display="none"><path id="kity_path_68" fill="white" stroke="gray" d="M765.5,83.5A6,6,0,1,1,753.5,83.5A6,6,0,1,1,765.5,83.5"></path><path id="kity_path_69" fill="none" stroke="gray"></path></g><path id="node_outline6" fill="none" stroke="none" d="M770.5,72.5h35a5,5,0,0,1,5,5v12a5,5,0,0,1,-5,5h-35a5,5,0,0,1,-5,-5v-12a5,5,0,0,1,5,-5z" stroke-width="3"></path><g id="node_text6" fill="black"><text id="kity_text_65" text-rendering="inherit" font-size="12" dy=".8em" y="75.70000004768372" x="775.5">问卷</text></g></g><g id="minder_node7"><g id="node_expander6" style="cursor: pointer;" display="none"><path id="kity_path_76" fill="white" stroke="gray" d="M765.5,135.5A6,6,0,1,1,753.5,135.5A6,6,0,1,1,765.5,135.5"></path><path id="kity_path_77" fill="none" stroke="gray"></path></g><path id="node_outline7" fill="none" stroke="none" d="M770.5,124.5h58a5,5,0,0,1,5,5v12a5,5,0,0,1,-5,5h-58a5,5,0,0,1,-5,-5v-12a5,5,0,0,1,5,-5z" stroke-width="3"></path><g id="node_text7" fill="black"><text id="kity_text_73" text-rendering="inherit" font-size="12" dy=".8em" y="127.70000004768372" x="775.5">民意调查</text></g></g><g id="minder_node3"><g id="node_expander2" style="cursor: pointer;"><path id="kity_path_44" fill="white" stroke="gray" d="M657.5,83.5A6,6,0,1,1,645.5,83.5A6,6,0,1,1,657.5,83.5"></path><path id="kity_path_45" fill="none" stroke="gray" d="M647,83.5L656,83.5"></path></g><path id="node_outline3" fill="none" stroke="none" d="M662.5,72.5h58a5,5,0,0,1,5,5v12a5,5,0,0,1,-5,5h-58a5,5,0,0,1,-5,-5v-12a5,5,0,0,1,5,-5z" stroke-width="3"></path><g id="node_text3" fill="black"><text id="kity_text_41" text-rendering="inherit" font-size="12" dy=".8em" y="75.70000004768372" x="667.5">传统渠道</text></g></g><g id="minder_node9"><g id="node_expander8" style="cursor: pointer;" display="none"><path id="kity_path_92" fill="white" stroke="gray" d="M765.5,187.5A6,6,0,1,1,753.5,187.5A6,6,0,1,1,765.5,187.5"></path><path id="kity_path_93" fill="none" stroke="gray"></path></g><path id="node_outline9" fill="none" stroke="none" d="M770.5,176.5h34a5,5,0,0,1,5,5v12a5,5,0,0,1,-5,5h-34a5,5,0,0,1,-5,-5v-12a5,5,0,0,1,5,-5z" stroke-width="3"></path><g id="node_text9" fill="black"><text id="kity_text_89" text-rendering="inherit" font-size="12" dy=".8em" y="179.70000004768372" x="775.5">微博</text></g></g><g id="minder_node10"><g id="node_expander9" style="cursor: pointer;" display="none"><path id="kity_path_100" fill="white" stroke="gray" d="M765.5,239.5A6,6,0,1,1,753.5,239.5A6,6,0,1,1,765.5,239.5"></path><path id="kity_path_101" fill="none" stroke="gray"></path></g><path id="node_outline10" fill="none" stroke="none" d="M770.5,228.5h47a5,5,0,0,1,5,5v12a5,5,0,0,1,-5,5h-47a5,5,0,0,1,-5,-5v-12a5,5,0,0,1,5,-5z" stroke-width="3"></path><g id="node_text10" fill="black"><text id="kity_text_97" text-rendering="inherit" font-size="12" dy=".8em" y="231.70000004768372" x="775.5">客户端</text></g></g><g id="minder_node11"><g id="node_expander10" style="cursor: pointer;" display="none"><path id="kity_path_108" fill="white" stroke="gray" d="M765.5,291.5A6,6,0,1,1,753.5,291.5A6,6,0,1,1,765.5,291.5"></path><path id="kity_path_109" fill="none" stroke="gray"></path></g><path id="node_outline11" fill="none" stroke="none" d="M770.5,280.5h34a5,5,0,0,1,5,5v12a5,5,0,0,1,-5,5h-34a5,5,0,0,1,-5,-5v-12a5,5,0,0,1,5,-5z" stroke-width="3"></path><g id="node_text11" fill="black"><text id="kity_text_105" text-rendering="inherit" font-size="12" dy=".8em" y="283.7000000476837" x="775.5">论坛</text></g></g><g id="minder_node8"><g id="node_expander7" style="cursor: pointer;"><path id="kity_path_84" fill="white" stroke="gray" d="M657.5,239.5A6,6,0,1,1,645.5,239.5A6,6,0,1,1,657.5,239.5"></path><path id="kity_path_85" fill="none" stroke="gray" d="M647,239.5L656,239.5"></path></g><path id="node_outline8" fill="none" stroke="none" d="M662.5,228.5h58a5,5,0,0,1,5,5v12a5,5,0,0,1,-5,5h-58a5,5,0,0,1,-5,-5v-12a5,5,0,0,1,5,-5z" stroke-width="3"></path><g id="node_text8" fill="black"><text id="kity_text_81" text-rendering="inherit" font-size="12" dy=".8em" y="231.70000004768372" x="667.5">新型渠道</text></g></g><g id="minder_node12"><g id="node_expander11" style="cursor: pointer;" display="none"><path id="kity_path_116" fill="white" stroke="gray" d="M657.5,343.5A6,6,0,1,1,645.5,343.5A6,6,0,1,1,657.5,343.5"></path><path id="kity_path_117" fill="none" stroke="gray"></path></g><path id="node_outline12" fill="none" stroke="none" d="M662.5,332.5h59a5,5,0,0,1,5,5v12a5,5,0,0,1,-5,5h-59a5,5,0,0,1,-5,-5v-12a5,5,0,0,1,5,-5z" stroke-width="3"></path><g id="node_text12" fill="black"><text id="kity_text_113" text-rendering="inherit" font-size="12" dy=".8em" y="335.7000000476837" x="667.5">特殊渠道</text></g></g><g id="minder_node16"><g id="node_expander15" style="cursor: pointer;" display="none"><path id="kity_path_148" fill="white" stroke="gray" d="M101.5,123.5A6,6,0,1,1,89.5,123.5A6,6,0,1,1,101.5,123.5"></path><path id="kity_path_149" fill="none" stroke="gray"></path></g><path id="node_outline16" fill="none" stroke="none" d="M26.5,112.5h58a5,5,0,0,1,5,5v12a5,5,0,0,1,-5,5h-58a5,5,0,0,1,-5,-5v-12a5,5,0,0,1,5,-5z" stroke-width="3"></path><g id="node_text16" fill="black"><text id="kity_text_145" text-rendering="inherit" font-size="12" dy=".8em" y="115.70000004768372" x="31.5">常规民情</text></g></g><g id="minder_node17"><g id="node_expander16" style="cursor: pointer;" display="none"><path id="kity_path_156" fill="white" stroke="gray" d="M101.5,175.5A6,6,0,1,1,89.5,175.5A6,6,0,1,1,101.5,175.5"></path><path id="kity_path_157" fill="none" stroke="gray"></path></g><path id="node_outline17" fill="none" stroke="none" d="M26.5,164.5h58a5,5,0,0,1,5,5v12a5,5,0,0,1,-5,5h-58a5,5,0,0,1,-5,-5v-12a5,5,0,0,1,5,-5z" stroke-width="3"></path><g id="node_text17" fill="black"><text id="kity_text_153" text-rendering="inherit" font-size="12" dy=".8em" y="167.70000004768372" x="31.5">突发事件</text></g></g><g id="minder_node14"><g id="node_expander13" style="cursor: pointer;"><path id="kity_path_132" fill="white" stroke="gray" d="M209.5,149.5A6,6,0,1,1,197.5,149.5A6,6,0,1,1,209.5,149.5"></path><path id="kity_path_133" fill="none" stroke="gray" d="M199,149.5L208,149.5"></path></g><path id="node_outline14" fill="none" stroke="none" d="M134.5,138.5h58a5,5,0,0,1,5,5v12a5,5,0,0,1,-5,5h-58a5,5,0,0,1,-5,-5v-12a5,5,0,0,1,5,-5z" stroke-width="3"></path><g id="node_text14" fill="black"><text id="kity_text_129" text-rendering="inherit" font-size="12" dy=".8em" y="141.70000004768372" x="139.5">政府治理</text></g></g><g id="minder_node19"><g id="node_expander18" style="cursor: pointer;" display="none"><path id="kity_path_172" fill="white" stroke="gray" d="M101.5,227.5A6,6,0,1,1,89.5,227.5A6,6,0,1,1,101.5,227.5"></path><path id="kity_path_173" fill="none" stroke="gray"></path></g><path id="node_outline19" fill="none" stroke="none" d="M25.5,216.5h59a5,5,0,0,1,5,5v12a5,5,0,0,1,-5,5h-59a5,5,0,0,1,-5,-5v-12a5,5,0,0,1,5,-5z" stroke-width="3"></path><g id="node_text19" fill="black"><text id="kity_text_169" text-rendering="inherit" font-size="12" dy=".8em" y="219.70000004768372" x="30.5">企业形象</text></g></g><g id="minder_node20"><g id="node_expander19" style="cursor: pointer;" display="none"><path id="kity_path_180" fill="white" stroke="gray" d="M101.5,279.5A6,6,0,1,1,89.5,279.5A6,6,0,1,1,101.5,279.5"></path><path id="kity_path_181" fill="none" stroke="gray"></path></g><path id="node_outline20" fill="none" stroke="none" d="M25.5,268.5h59a5,5,0,0,1,5,5v12a5,5,0,0,1,-5,5h-59a5,5,0,0,1,-5,-5v-12a5,5,0,0,1,5,-5z" stroke-width="3"></path><g id="node_text20" fill="black"><text id="kity_text_177" text-rendering="inherit" font-size="12" dy=".8em" y="271.7000000476837" x="30.5">金融动态</text></g></g><g id="minder_node21"><g id="node_expander20" style="cursor: pointer;" display="none"><path id="kity_path_188" fill="white" stroke="gray" d="M101.5,331.5A6,6,0,1,1,89.5,331.5A6,6,0,1,1,101.5,331.5"></path><path id="kity_path_189" fill="none" stroke="gray"></path></g><path id="node_outline21" fill="none" stroke="none" d="M26.5,320.5h58a5,5,0,0,1,5,5v12a5,5,0,0,1,-5,5h-58a5,5,0,0,1,-5,-5v-12a5,5,0,0,1,5,-5z" stroke-width="3"></path><g id="node_text21" fill="black"><text id="kity_text_185" text-rendering="inherit" font-size="12" dy=".8em" y="323.7000000476837" x="31.5">品牌管理</text></g></g><g id="minder_node15"><g id="node_expander14" style="cursor: pointer;"><path id="kity_path_140" fill="white" stroke="gray" d="M209.5,279.5A6,6,0,1,1,197.5,279.5A6,6,0,1,1,209.5,279.5"></path><path id="kity_path_141" fill="none" stroke="gray" d="M199,279.5L208,279.5"></path></g><path id="node_outline15" fill="none" stroke="none" d="M134.5,268.5h58a5,5,0,0,1,5,5v12a5,5,0,0,1,-5,5h-58a5,5,0,0,1,-5,-5v-12a5,5,0,0,1,5,-5z" stroke-width="3"></path><g id="node_text15" fill="black"><text id="kity_text_137" text-rendering="inherit" font-size="12" dy=".8em" y="271.7000000476837" x="139.5">商业管理</text></g></g></g></g></svg>